<mxfile host="app.diagrams.net" agent="Mozilla/5.0 (Windows NT 10.0; Win64; x64; rv:132.0) Gecko/20100101 Firefox/132.0" version="24.9.0">
  <diagram name="Сторінка-1" id="6DXRS3csCj2I16RjvyHf">
    <mxGraphModel dx="3319" dy="1102" grid="0" gridSize="10" guides="1" tooltips="1" connect="1" arrows="1" fold="1" page="1" pageScale="1" pageWidth="827" pageHeight="1169" math="0" shadow="0">
      <root>
        <mxCell id="0" />
        <mxCell id="1" parent="0" />
        <mxCell id="0NDhoJnBXqwm7qd_2aJC-104" style="edgeStyle=orthogonalEdgeStyle;rounded=0;orthogonalLoop=1;jettySize=auto;html=1;exitX=0.5;exitY=1;exitDx=0;exitDy=0;entryX=0.5;entryY=0;entryDx=0;entryDy=0;" edge="1" parent="1" source="0NDhoJnBXqwm7qd_2aJC-1" target="0NDhoJnBXqwm7qd_2aJC-2">
          <mxGeometry relative="1" as="geometry" />
        </mxCell>
        <mxCell id="0NDhoJnBXqwm7qd_2aJC-1" value="Start" style="ellipse;whiteSpace=wrap;html=1;" vertex="1" parent="1">
          <mxGeometry x="140" y="140" width="90" height="60" as="geometry" />
        </mxCell>
        <mxCell id="0NDhoJnBXqwm7qd_2aJC-105" style="edgeStyle=orthogonalEdgeStyle;rounded=0;orthogonalLoop=1;jettySize=auto;html=1;exitX=0.5;exitY=1;exitDx=0;exitDy=0;entryX=0.5;entryY=0;entryDx=0;entryDy=0;" edge="1" parent="1" source="0NDhoJnBXqwm7qd_2aJC-2" target="0NDhoJnBXqwm7qd_2aJC-3">
          <mxGeometry relative="1" as="geometry" />
        </mxCell>
        <mxCell id="0NDhoJnBXqwm7qd_2aJC-2" value="initializing n, m" style="rounded=0;whiteSpace=wrap;html=1;" vertex="1" parent="1">
          <mxGeometry x="125" y="220" width="120" height="60" as="geometry" />
        </mxCell>
        <mxCell id="0NDhoJnBXqwm7qd_2aJC-106" style="edgeStyle=orthogonalEdgeStyle;rounded=0;orthogonalLoop=1;jettySize=auto;html=1;exitX=0.5;exitY=1;exitDx=0;exitDy=0;" edge="1" parent="1" source="0NDhoJnBXqwm7qd_2aJC-3" target="0NDhoJnBXqwm7qd_2aJC-4">
          <mxGeometry relative="1" as="geometry" />
        </mxCell>
        <mxCell id="0NDhoJnBXqwm7qd_2aJC-3" value="input n, m" style="shape=parallelogram;perimeter=parallelogramPerimeter;whiteSpace=wrap;html=1;fixedSize=1;" vertex="1" parent="1">
          <mxGeometry x="120" y="300" width="130" height="50" as="geometry" />
        </mxCell>
        <mxCell id="0NDhoJnBXqwm7qd_2aJC-107" style="edgeStyle=orthogonalEdgeStyle;rounded=0;orthogonalLoop=1;jettySize=auto;html=1;exitX=0.5;exitY=1;exitDx=0;exitDy=0;entryX=0.5;entryY=0;entryDx=0;entryDy=0;" edge="1" parent="1" source="0NDhoJnBXqwm7qd_2aJC-4" target="0NDhoJnBXqwm7qd_2aJC-6">
          <mxGeometry relative="1" as="geometry" />
        </mxCell>
        <mxCell id="0NDhoJnBXqwm7qd_2aJC-4" value="initializing vector matrx, vector asnwer" style="rounded=0;whiteSpace=wrap;html=1;" vertex="1" parent="1">
          <mxGeometry x="125" y="370" width="120" height="60" as="geometry" />
        </mxCell>
        <mxCell id="0NDhoJnBXqwm7qd_2aJC-19" style="edgeStyle=orthogonalEdgeStyle;rounded=0;orthogonalLoop=1;jettySize=auto;html=1;exitX=1;exitY=0.5;exitDx=0;exitDy=0;entryX=0;entryY=0.5;entryDx=0;entryDy=0;" edge="1" parent="1" source="0NDhoJnBXqwm7qd_2aJC-5" target="0NDhoJnBXqwm7qd_2aJC-7">
          <mxGeometry relative="1" as="geometry" />
        </mxCell>
        <mxCell id="0NDhoJnBXqwm7qd_2aJC-26" style="edgeStyle=orthogonalEdgeStyle;rounded=0;orthogonalLoop=1;jettySize=auto;html=1;exitX=0;exitY=0.5;exitDx=0;exitDy=0;" edge="1" parent="1" source="0NDhoJnBXqwm7qd_2aJC-5">
          <mxGeometry relative="1" as="geometry">
            <mxPoint x="120" y="670" as="targetPoint" />
          </mxGeometry>
        </mxCell>
        <mxCell id="0NDhoJnBXqwm7qd_2aJC-5" value="i &amp;lt; n" style="rhombus;whiteSpace=wrap;html=1;" vertex="1" parent="1">
          <mxGeometry x="145" y="510" width="80" height="80" as="geometry" />
        </mxCell>
        <mxCell id="0NDhoJnBXqwm7qd_2aJC-18" style="edgeStyle=orthogonalEdgeStyle;rounded=0;orthogonalLoop=1;jettySize=auto;html=1;exitX=0.5;exitY=1;exitDx=0;exitDy=0;entryX=0.5;entryY=0;entryDx=0;entryDy=0;" edge="1" parent="1" source="0NDhoJnBXqwm7qd_2aJC-6" target="0NDhoJnBXqwm7qd_2aJC-5">
          <mxGeometry relative="1" as="geometry" />
        </mxCell>
        <mxCell id="0NDhoJnBXqwm7qd_2aJC-6" value="int i = 0" style="rounded=0;whiteSpace=wrap;html=1;" vertex="1" parent="1">
          <mxGeometry x="145" y="450" width="80" height="40" as="geometry" />
        </mxCell>
        <mxCell id="0NDhoJnBXqwm7qd_2aJC-20" style="edgeStyle=orthogonalEdgeStyle;rounded=0;orthogonalLoop=1;jettySize=auto;html=1;exitX=1;exitY=0.5;exitDx=0;exitDy=0;entryX=0;entryY=0.5;entryDx=0;entryDy=0;" edge="1" parent="1" source="0NDhoJnBXqwm7qd_2aJC-7" target="0NDhoJnBXqwm7qd_2aJC-9">
          <mxGeometry relative="1" as="geometry" />
        </mxCell>
        <mxCell id="0NDhoJnBXqwm7qd_2aJC-7" value="int j = 0" style="rounded=0;whiteSpace=wrap;html=1;" vertex="1" parent="1">
          <mxGeometry x="250" y="530" width="80" height="40" as="geometry" />
        </mxCell>
        <mxCell id="0NDhoJnBXqwm7qd_2aJC-14" style="edgeStyle=orthogonalEdgeStyle;rounded=0;orthogonalLoop=1;jettySize=auto;html=1;exitX=1;exitY=0.5;exitDx=0;exitDy=0;entryX=0;entryY=0.5;entryDx=0;entryDy=0;" edge="1" parent="1" source="0NDhoJnBXqwm7qd_2aJC-9" target="0NDhoJnBXqwm7qd_2aJC-10">
          <mxGeometry relative="1" as="geometry" />
        </mxCell>
        <mxCell id="0NDhoJnBXqwm7qd_2aJC-21" style="edgeStyle=orthogonalEdgeStyle;rounded=0;orthogonalLoop=1;jettySize=auto;html=1;exitX=0.5;exitY=1;exitDx=0;exitDy=0;entryX=0.5;entryY=0;entryDx=0;entryDy=0;" edge="1" parent="1" source="0NDhoJnBXqwm7qd_2aJC-9" target="0NDhoJnBXqwm7qd_2aJC-16">
          <mxGeometry relative="1" as="geometry" />
        </mxCell>
        <mxCell id="0NDhoJnBXqwm7qd_2aJC-9" value="j &amp;lt; m" style="rhombus;whiteSpace=wrap;html=1;" vertex="1" parent="1">
          <mxGeometry x="360" y="510" width="80" height="80" as="geometry" />
        </mxCell>
        <mxCell id="0NDhoJnBXqwm7qd_2aJC-15" style="edgeStyle=orthogonalEdgeStyle;rounded=0;orthogonalLoop=1;jettySize=auto;html=1;exitX=1;exitY=0.5;exitDx=0;exitDy=0;entryX=0;entryY=0.5;entryDx=0;entryDy=0;" edge="1" parent="1" source="0NDhoJnBXqwm7qd_2aJC-10" target="0NDhoJnBXqwm7qd_2aJC-11">
          <mxGeometry relative="1" as="geometry" />
        </mxCell>
        <mxCell id="0NDhoJnBXqwm7qd_2aJC-10" value="input matrix[i][j]" style="shape=parallelogram;perimeter=parallelogramPerimeter;whiteSpace=wrap;html=1;fixedSize=1;" vertex="1" parent="1">
          <mxGeometry x="460" y="525" width="120" height="50" as="geometry" />
        </mxCell>
        <mxCell id="0NDhoJnBXqwm7qd_2aJC-13" style="edgeStyle=orthogonalEdgeStyle;rounded=0;orthogonalLoop=1;jettySize=auto;html=1;entryX=0.5;entryY=0;entryDx=0;entryDy=0;" edge="1" parent="1" source="0NDhoJnBXqwm7qd_2aJC-11" target="0NDhoJnBXqwm7qd_2aJC-9">
          <mxGeometry relative="1" as="geometry">
            <mxPoint x="400" y="460" as="targetPoint" />
            <Array as="points">
              <mxPoint x="650" y="490" />
              <mxPoint x="401" y="490" />
            </Array>
          </mxGeometry>
        </mxCell>
        <mxCell id="0NDhoJnBXqwm7qd_2aJC-11" value="j++" style="rounded=0;whiteSpace=wrap;html=1;" vertex="1" parent="1">
          <mxGeometry x="610" y="530" width="80" height="40" as="geometry" />
        </mxCell>
        <mxCell id="0NDhoJnBXqwm7qd_2aJC-17" style="edgeStyle=orthogonalEdgeStyle;rounded=0;orthogonalLoop=1;jettySize=auto;html=1;exitX=0;exitY=0.5;exitDx=0;exitDy=0;entryX=0.5;entryY=1;entryDx=0;entryDy=0;" edge="1" parent="1" source="0NDhoJnBXqwm7qd_2aJC-16" target="0NDhoJnBXqwm7qd_2aJC-5">
          <mxGeometry relative="1" as="geometry" />
        </mxCell>
        <mxCell id="0NDhoJnBXqwm7qd_2aJC-16" value="i++" style="rounded=0;whiteSpace=wrap;html=1;" vertex="1" parent="1">
          <mxGeometry x="360" y="610" width="80" height="40" as="geometry" />
        </mxCell>
        <mxCell id="0NDhoJnBXqwm7qd_2aJC-22" value="F" style="text;html=1;align=center;verticalAlign=middle;whiteSpace=wrap;rounded=0;" vertex="1" parent="1">
          <mxGeometry x="360" y="580" width="60" height="30" as="geometry" />
        </mxCell>
        <mxCell id="0NDhoJnBXqwm7qd_2aJC-23" value="T" style="text;html=1;align=center;verticalAlign=middle;whiteSpace=wrap;rounded=0;" vertex="1" parent="1">
          <mxGeometry x="420" y="525" width="60" height="30" as="geometry" />
        </mxCell>
        <mxCell id="0NDhoJnBXqwm7qd_2aJC-25" value="T" style="text;html=1;align=center;verticalAlign=middle;whiteSpace=wrap;rounded=0;" vertex="1" parent="1">
          <mxGeometry x="200" y="520" width="60" height="30" as="geometry" />
        </mxCell>
        <mxCell id="0NDhoJnBXqwm7qd_2aJC-27" value="F" style="text;html=1;align=center;verticalAlign=middle;whiteSpace=wrap;rounded=0;" vertex="1" parent="1">
          <mxGeometry x="100" y="525" width="60" height="30" as="geometry" />
        </mxCell>
        <mxCell id="0NDhoJnBXqwm7qd_2aJC-42" style="edgeStyle=orthogonalEdgeStyle;rounded=0;orthogonalLoop=1;jettySize=auto;html=1;exitX=0.5;exitY=1;exitDx=0;exitDy=0;entryX=0.5;entryY=0;entryDx=0;entryDy=0;" edge="1" parent="1" source="0NDhoJnBXqwm7qd_2aJC-28" target="0NDhoJnBXqwm7qd_2aJC-30">
          <mxGeometry relative="1" as="geometry" />
        </mxCell>
        <mxCell id="0NDhoJnBXqwm7qd_2aJC-28" value="int i = 0" style="rounded=0;whiteSpace=wrap;html=1;" vertex="1" parent="1">
          <mxGeometry x="80" y="670" width="80" height="40" as="geometry" />
        </mxCell>
        <mxCell id="0NDhoJnBXqwm7qd_2aJC-43" style="edgeStyle=orthogonalEdgeStyle;rounded=0;orthogonalLoop=1;jettySize=auto;html=1;exitX=1;exitY=0.5;exitDx=0;exitDy=0;entryX=0;entryY=0.5;entryDx=0;entryDy=0;" edge="1" parent="1" source="0NDhoJnBXqwm7qd_2aJC-30" target="0NDhoJnBXqwm7qd_2aJC-31">
          <mxGeometry relative="1" as="geometry" />
        </mxCell>
        <mxCell id="0NDhoJnBXqwm7qd_2aJC-98" style="edgeStyle=orthogonalEdgeStyle;rounded=0;orthogonalLoop=1;jettySize=auto;html=1;" edge="1" parent="1" source="0NDhoJnBXqwm7qd_2aJC-30">
          <mxGeometry relative="1" as="geometry">
            <mxPoint x="49.999999999999886" y="939.9999999999998" as="targetPoint" />
          </mxGeometry>
        </mxCell>
        <mxCell id="0NDhoJnBXqwm7qd_2aJC-30" value="i &amp;lt; n" style="rhombus;whiteSpace=wrap;html=1;" vertex="1" parent="1">
          <mxGeometry x="80" y="730" width="80" height="80" as="geometry" />
        </mxCell>
        <mxCell id="0NDhoJnBXqwm7qd_2aJC-44" style="edgeStyle=orthogonalEdgeStyle;rounded=0;orthogonalLoop=1;jettySize=auto;html=1;exitX=1;exitY=0.5;exitDx=0;exitDy=0;entryX=0;entryY=0.5;entryDx=0;entryDy=0;" edge="1" parent="1" source="0NDhoJnBXqwm7qd_2aJC-31" target="0NDhoJnBXqwm7qd_2aJC-32">
          <mxGeometry relative="1" as="geometry" />
        </mxCell>
        <mxCell id="0NDhoJnBXqwm7qd_2aJC-31" value="int j = 0" style="rounded=0;whiteSpace=wrap;html=1;" vertex="1" parent="1">
          <mxGeometry x="190" y="750" width="80" height="40" as="geometry" />
        </mxCell>
        <mxCell id="0NDhoJnBXqwm7qd_2aJC-45" style="edgeStyle=orthogonalEdgeStyle;rounded=0;orthogonalLoop=1;jettySize=auto;html=1;exitX=1;exitY=0.5;exitDx=0;exitDy=0;entryX=0;entryY=0.5;entryDx=0;entryDy=0;" edge="1" parent="1" source="0NDhoJnBXqwm7qd_2aJC-32" target="0NDhoJnBXqwm7qd_2aJC-33">
          <mxGeometry relative="1" as="geometry" />
        </mxCell>
        <mxCell id="0NDhoJnBXqwm7qd_2aJC-95" style="edgeStyle=orthogonalEdgeStyle;rounded=0;orthogonalLoop=1;jettySize=auto;html=1;exitX=0.5;exitY=1;exitDx=0;exitDy=0;entryX=1;entryY=0.75;entryDx=0;entryDy=0;" edge="1" parent="1" source="0NDhoJnBXqwm7qd_2aJC-32" target="0NDhoJnBXqwm7qd_2aJC-94">
          <mxGeometry relative="1" as="geometry" />
        </mxCell>
        <mxCell id="0NDhoJnBXqwm7qd_2aJC-32" value="j &amp;lt; m" style="rhombus;whiteSpace=wrap;html=1;" vertex="1" parent="1">
          <mxGeometry x="310" y="730" width="80" height="80" as="geometry" />
        </mxCell>
        <mxCell id="0NDhoJnBXqwm7qd_2aJC-46" style="edgeStyle=orthogonalEdgeStyle;rounded=0;orthogonalLoop=1;jettySize=auto;html=1;exitX=0.5;exitY=1;exitDx=0;exitDy=0;entryX=0.5;entryY=0;entryDx=0;entryDy=0;" edge="1" parent="1" source="0NDhoJnBXqwm7qd_2aJC-33" target="0NDhoJnBXqwm7qd_2aJC-34">
          <mxGeometry relative="1" as="geometry" />
        </mxCell>
        <mxCell id="0NDhoJnBXqwm7qd_2aJC-33" value="char taget = matrix[i][j]" style="rounded=0;whiteSpace=wrap;html=1;" vertex="1" parent="1">
          <mxGeometry x="420" y="745" width="130" height="50" as="geometry" />
        </mxCell>
        <mxCell id="0NDhoJnBXqwm7qd_2aJC-47" style="edgeStyle=orthogonalEdgeStyle;rounded=0;orthogonalLoop=1;jettySize=auto;html=1;exitX=0.5;exitY=1;exitDx=0;exitDy=0;entryX=0.5;entryY=0;entryDx=0;entryDy=0;" edge="1" parent="1" source="0NDhoJnBXqwm7qd_2aJC-34" target="0NDhoJnBXqwm7qd_2aJC-35">
          <mxGeometry relative="1" as="geometry" />
        </mxCell>
        <mxCell id="0NDhoJnBXqwm7qd_2aJC-34" value="bool foundInRow = false, foundInCol = false" style="rounded=0;whiteSpace=wrap;html=1;" vertex="1" parent="1">
          <mxGeometry x="410" y="820" width="150" height="40" as="geometry" />
        </mxCell>
        <mxCell id="0NDhoJnBXqwm7qd_2aJC-48" style="edgeStyle=orthogonalEdgeStyle;rounded=0;orthogonalLoop=1;jettySize=auto;html=1;exitX=0.5;exitY=1;exitDx=0;exitDy=0;entryX=0.5;entryY=0;entryDx=0;entryDy=0;" edge="1" parent="1" source="0NDhoJnBXqwm7qd_2aJC-35" target="0NDhoJnBXqwm7qd_2aJC-37">
          <mxGeometry relative="1" as="geometry" />
        </mxCell>
        <mxCell id="0NDhoJnBXqwm7qd_2aJC-35" value="int col = 0" style="rounded=0;whiteSpace=wrap;html=1;" vertex="1" parent="1">
          <mxGeometry x="445" y="880" width="80" height="40" as="geometry" />
        </mxCell>
        <mxCell id="0NDhoJnBXqwm7qd_2aJC-62" style="edgeStyle=orthogonalEdgeStyle;rounded=0;orthogonalLoop=1;jettySize=auto;html=1;exitX=1;exitY=0.5;exitDx=0;exitDy=0;" edge="1" parent="1" source="0NDhoJnBXqwm7qd_2aJC-37">
          <mxGeometry relative="1" as="geometry">
            <mxPoint x="590" y="980.0588235294117" as="targetPoint" />
          </mxGeometry>
        </mxCell>
        <mxCell id="0NDhoJnBXqwm7qd_2aJC-37" value="col &amp;lt; m" style="rhombus;whiteSpace=wrap;html=1;" vertex="1" parent="1">
          <mxGeometry x="445" y="940" width="80" height="80" as="geometry" />
        </mxCell>
        <mxCell id="0NDhoJnBXqwm7qd_2aJC-50" style="edgeStyle=orthogonalEdgeStyle;rounded=0;orthogonalLoop=1;jettySize=auto;html=1;exitX=0.5;exitY=1;exitDx=0;exitDy=0;entryX=0.5;entryY=0;entryDx=0;entryDy=0;" edge="1" parent="1" source="0NDhoJnBXqwm7qd_2aJC-38" target="0NDhoJnBXqwm7qd_2aJC-39">
          <mxGeometry relative="1" as="geometry" />
        </mxCell>
        <mxCell id="0NDhoJnBXqwm7qd_2aJC-53" style="edgeStyle=orthogonalEdgeStyle;rounded=0;orthogonalLoop=1;jettySize=auto;html=1;exitX=0;exitY=0.5;exitDx=0;exitDy=0;entryX=1;entryY=0.5;entryDx=0;entryDy=0;" edge="1" parent="1" source="0NDhoJnBXqwm7qd_2aJC-38" target="0NDhoJnBXqwm7qd_2aJC-41">
          <mxGeometry relative="1" as="geometry" />
        </mxCell>
        <mxCell id="0NDhoJnBXqwm7qd_2aJC-38" value="col != j &amp;amp;&amp;amp; matrix[i][col] == target" style="rhombus;whiteSpace=wrap;html=1;" vertex="1" parent="1">
          <mxGeometry x="412" y="1036" width="150" height="90" as="geometry" />
        </mxCell>
        <mxCell id="0NDhoJnBXqwm7qd_2aJC-51" style="edgeStyle=orthogonalEdgeStyle;rounded=0;orthogonalLoop=1;jettySize=auto;html=1;exitX=0.5;exitY=1;exitDx=0;exitDy=0;entryX=0.5;entryY=0;entryDx=0;entryDy=0;" edge="1" parent="1" source="0NDhoJnBXqwm7qd_2aJC-39" target="0NDhoJnBXqwm7qd_2aJC-40">
          <mxGeometry relative="1" as="geometry" />
        </mxCell>
        <mxCell id="0NDhoJnBXqwm7qd_2aJC-39" value="foundInRow = true" style="rounded=0;whiteSpace=wrap;html=1;" vertex="1" parent="1">
          <mxGeometry x="422" y="1140" width="126" height="40" as="geometry" />
        </mxCell>
        <mxCell id="0NDhoJnBXqwm7qd_2aJC-61" style="edgeStyle=orthogonalEdgeStyle;rounded=0;orthogonalLoop=1;jettySize=auto;html=1;exitX=1;exitY=0.5;exitDx=0;exitDy=0;entryX=0;entryY=0.5;entryDx=0;entryDy=0;" edge="1" parent="1" source="0NDhoJnBXqwm7qd_2aJC-40" target="0NDhoJnBXqwm7qd_2aJC-55">
          <mxGeometry relative="1" as="geometry">
            <mxPoint x="590" y="900" as="targetPoint" />
            <Array as="points">
              <mxPoint x="591" y="1220" />
              <mxPoint x="591" y="900" />
            </Array>
          </mxGeometry>
        </mxCell>
        <mxCell id="0NDhoJnBXqwm7qd_2aJC-40" value="break" style="rounded=0;whiteSpace=wrap;html=1;" vertex="1" parent="1">
          <mxGeometry x="450" y="1200" width="70" height="40" as="geometry" />
        </mxCell>
        <mxCell id="0NDhoJnBXqwm7qd_2aJC-54" style="edgeStyle=orthogonalEdgeStyle;rounded=0;orthogonalLoop=1;jettySize=auto;html=1;exitX=0.5;exitY=0;exitDx=0;exitDy=0;entryX=0;entryY=0.5;entryDx=0;entryDy=0;" edge="1" parent="1" source="0NDhoJnBXqwm7qd_2aJC-41" target="0NDhoJnBXqwm7qd_2aJC-37">
          <mxGeometry relative="1" as="geometry" />
        </mxCell>
        <mxCell id="0NDhoJnBXqwm7qd_2aJC-41" value="col++" style="rounded=0;whiteSpace=wrap;html=1;" vertex="1" parent="1">
          <mxGeometry x="300" y="1061" width="80" height="40" as="geometry" />
        </mxCell>
        <mxCell id="0NDhoJnBXqwm7qd_2aJC-49" style="edgeStyle=orthogonalEdgeStyle;rounded=0;orthogonalLoop=1;jettySize=auto;html=1;exitX=0.5;exitY=1;exitDx=0;exitDy=0;entryX=0.487;entryY=0.071;entryDx=0;entryDy=0;entryPerimeter=0;" edge="1" parent="1" source="0NDhoJnBXqwm7qd_2aJC-37" target="0NDhoJnBXqwm7qd_2aJC-38">
          <mxGeometry relative="1" as="geometry" />
        </mxCell>
        <mxCell id="0NDhoJnBXqwm7qd_2aJC-63" style="edgeStyle=orthogonalEdgeStyle;rounded=0;orthogonalLoop=1;jettySize=auto;html=1;exitX=0.5;exitY=1;exitDx=0;exitDy=0;entryX=0.5;entryY=0;entryDx=0;entryDy=0;" edge="1" parent="1" source="0NDhoJnBXqwm7qd_2aJC-55" target="0NDhoJnBXqwm7qd_2aJC-56">
          <mxGeometry relative="1" as="geometry" />
        </mxCell>
        <mxCell id="0NDhoJnBXqwm7qd_2aJC-55" value="int row = 0" style="rounded=0;whiteSpace=wrap;html=1;" vertex="1" parent="1">
          <mxGeometry x="755" y="880" width="80" height="40" as="geometry" />
        </mxCell>
        <mxCell id="0NDhoJnBXqwm7qd_2aJC-64" style="edgeStyle=orthogonalEdgeStyle;rounded=0;orthogonalLoop=1;jettySize=auto;html=1;exitX=0.5;exitY=1;exitDx=0;exitDy=0;entryX=0.5;entryY=0;entryDx=0;entryDy=0;" edge="1" parent="1" source="0NDhoJnBXqwm7qd_2aJC-56" target="0NDhoJnBXqwm7qd_2aJC-57">
          <mxGeometry relative="1" as="geometry" />
        </mxCell>
        <mxCell id="0NDhoJnBXqwm7qd_2aJC-85" style="edgeStyle=orthogonalEdgeStyle;rounded=0;orthogonalLoop=1;jettySize=auto;html=1;exitX=1;exitY=0.5;exitDx=0;exitDy=0;" edge="1" parent="1" source="0NDhoJnBXqwm7qd_2aJC-56">
          <mxGeometry relative="1" as="geometry">
            <mxPoint x="900" y="1030" as="targetPoint" />
          </mxGeometry>
        </mxCell>
        <mxCell id="0NDhoJnBXqwm7qd_2aJC-56" value="row &amp;lt; n" style="rhombus;whiteSpace=wrap;html=1;" vertex="1" parent="1">
          <mxGeometry x="755" y="940" width="80" height="80" as="geometry" />
        </mxCell>
        <mxCell id="0NDhoJnBXqwm7qd_2aJC-65" style="edgeStyle=orthogonalEdgeStyle;rounded=0;orthogonalLoop=1;jettySize=auto;html=1;exitX=0.5;exitY=1;exitDx=0;exitDy=0;entryX=0.5;entryY=0;entryDx=0;entryDy=0;" edge="1" parent="1" source="0NDhoJnBXqwm7qd_2aJC-57" target="0NDhoJnBXqwm7qd_2aJC-58">
          <mxGeometry relative="1" as="geometry" />
        </mxCell>
        <mxCell id="0NDhoJnBXqwm7qd_2aJC-67" style="edgeStyle=orthogonalEdgeStyle;rounded=0;orthogonalLoop=1;jettySize=auto;html=1;exitX=0;exitY=0.5;exitDx=0;exitDy=0;entryX=1;entryY=0.5;entryDx=0;entryDy=0;" edge="1" parent="1" source="0NDhoJnBXqwm7qd_2aJC-57" target="0NDhoJnBXqwm7qd_2aJC-60">
          <mxGeometry relative="1" as="geometry" />
        </mxCell>
        <mxCell id="0NDhoJnBXqwm7qd_2aJC-57" value="row != i &amp;amp;&amp;amp; matrix[row][j] == target" style="rhombus;whiteSpace=wrap;html=1;" vertex="1" parent="1">
          <mxGeometry x="720" y="1036" width="150" height="90" as="geometry" />
        </mxCell>
        <mxCell id="0NDhoJnBXqwm7qd_2aJC-66" style="edgeStyle=orthogonalEdgeStyle;rounded=0;orthogonalLoop=1;jettySize=auto;html=1;exitX=0.5;exitY=1;exitDx=0;exitDy=0;entryX=0.5;entryY=0;entryDx=0;entryDy=0;" edge="1" parent="1" source="0NDhoJnBXqwm7qd_2aJC-58" target="0NDhoJnBXqwm7qd_2aJC-59">
          <mxGeometry relative="1" as="geometry" />
        </mxCell>
        <mxCell id="0NDhoJnBXqwm7qd_2aJC-58" value="foundInCol = true" style="rounded=0;whiteSpace=wrap;html=1;" vertex="1" parent="1">
          <mxGeometry x="732" y="1140" width="126" height="40" as="geometry" />
        </mxCell>
        <mxCell id="0NDhoJnBXqwm7qd_2aJC-84" style="edgeStyle=orthogonalEdgeStyle;rounded=0;orthogonalLoop=1;jettySize=auto;html=1;exitX=1;exitY=0.5;exitDx=0;exitDy=0;entryX=0;entryY=0.5;entryDx=0;entryDy=0;" edge="1" parent="1" source="0NDhoJnBXqwm7qd_2aJC-59" target="0NDhoJnBXqwm7qd_2aJC-82">
          <mxGeometry relative="1" as="geometry">
            <Array as="points">
              <mxPoint x="900" y="1220" />
              <mxPoint x="900" y="1025" />
            </Array>
          </mxGeometry>
        </mxCell>
        <mxCell id="0NDhoJnBXqwm7qd_2aJC-59" value="break" style="rounded=0;whiteSpace=wrap;html=1;" vertex="1" parent="1">
          <mxGeometry x="760" y="1200" width="70" height="40" as="geometry" />
        </mxCell>
        <mxCell id="0NDhoJnBXqwm7qd_2aJC-68" style="edgeStyle=orthogonalEdgeStyle;rounded=0;orthogonalLoop=1;jettySize=auto;html=1;entryX=0;entryY=0.5;entryDx=0;entryDy=0;" edge="1" parent="1" source="0NDhoJnBXqwm7qd_2aJC-60" target="0NDhoJnBXqwm7qd_2aJC-56">
          <mxGeometry relative="1" as="geometry">
            <mxPoint x="660" y="950" as="targetPoint" />
            <Array as="points">
              <mxPoint x="660" y="990" />
              <mxPoint x="661" y="980" />
            </Array>
          </mxGeometry>
        </mxCell>
        <mxCell id="0NDhoJnBXqwm7qd_2aJC-60" value="col++" style="rounded=0;whiteSpace=wrap;html=1;" vertex="1" parent="1">
          <mxGeometry x="620" y="1061" width="80" height="40" as="geometry" />
        </mxCell>
        <mxCell id="0NDhoJnBXqwm7qd_2aJC-69" value="F" style="text;html=1;align=center;verticalAlign=middle;whiteSpace=wrap;rounded=0;" vertex="1" parent="1">
          <mxGeometry x="510" y="950" width="60" height="30" as="geometry" />
        </mxCell>
        <mxCell id="0NDhoJnBXqwm7qd_2aJC-70" value="F" style="text;html=1;align=center;verticalAlign=middle;whiteSpace=wrap;rounded=0;" vertex="1" parent="1">
          <mxGeometry x="835" y="950" width="60" height="30" as="geometry" />
        </mxCell>
        <mxCell id="0NDhoJnBXqwm7qd_2aJC-71" value="F" style="text;html=1;align=center;verticalAlign=middle;whiteSpace=wrap;rounded=0;" vertex="1" parent="1">
          <mxGeometry x="690" y="1090" width="60" height="30" as="geometry" />
        </mxCell>
        <mxCell id="0NDhoJnBXqwm7qd_2aJC-72" value="F" style="text;html=1;align=center;verticalAlign=middle;whiteSpace=wrap;rounded=0;" vertex="1" parent="1">
          <mxGeometry x="370" y="1090" width="60" height="30" as="geometry" />
        </mxCell>
        <mxCell id="0NDhoJnBXqwm7qd_2aJC-74" value="T" style="text;html=1;align=center;verticalAlign=middle;whiteSpace=wrap;rounded=0;" vertex="1" parent="1">
          <mxGeometry x="370" y="740" width="60" height="30" as="geometry" />
        </mxCell>
        <mxCell id="0NDhoJnBXqwm7qd_2aJC-75" value="T" style="text;html=1;align=center;verticalAlign=middle;whiteSpace=wrap;rounded=0;" vertex="1" parent="1">
          <mxGeometry x="780" y="1010" width="60" height="30" as="geometry" />
        </mxCell>
        <mxCell id="0NDhoJnBXqwm7qd_2aJC-76" value="T" style="text;html=1;align=center;verticalAlign=middle;whiteSpace=wrap;rounded=0;" vertex="1" parent="1">
          <mxGeometry x="786" y="1116" width="60" height="30" as="geometry" />
        </mxCell>
        <mxCell id="0NDhoJnBXqwm7qd_2aJC-77" value="T" style="text;html=1;align=center;verticalAlign=middle;whiteSpace=wrap;rounded=0;" vertex="1" parent="1">
          <mxGeometry x="481" y="1117" width="60" height="30" as="geometry" />
        </mxCell>
        <mxCell id="0NDhoJnBXqwm7qd_2aJC-79" value="T" style="text;html=1;align=center;verticalAlign=middle;whiteSpace=wrap;rounded=0;" vertex="1" parent="1">
          <mxGeometry x="465" y="1010" width="60" height="30" as="geometry" />
        </mxCell>
        <mxCell id="0NDhoJnBXqwm7qd_2aJC-80" value="T" style="text;html=1;align=center;verticalAlign=middle;whiteSpace=wrap;rounded=0;" vertex="1" parent="1">
          <mxGeometry x="140" y="740" width="60" height="30" as="geometry" />
        </mxCell>
        <mxCell id="0NDhoJnBXqwm7qd_2aJC-90" style="edgeStyle=orthogonalEdgeStyle;rounded=0;orthogonalLoop=1;jettySize=auto;html=1;exitX=1;exitY=0.5;exitDx=0;exitDy=0;" edge="1" parent="1" source="0NDhoJnBXqwm7qd_2aJC-82">
          <mxGeometry relative="1" as="geometry">
            <mxPoint x="680" y="800" as="targetPoint" />
            <Array as="points">
              <mxPoint x="1111" y="1025" />
              <mxPoint x="1111" y="810" />
            </Array>
          </mxGeometry>
        </mxCell>
        <mxCell id="0NDhoJnBXqwm7qd_2aJC-82" value="&lt;div&gt;!foundInRow &amp;amp;&amp;amp;&amp;nbsp;&lt;/div&gt;&lt;div&gt;!foundInCol&lt;/div&gt;" style="rhombus;whiteSpace=wrap;html=1;" vertex="1" parent="1">
          <mxGeometry x="920" y="980" width="150" height="90" as="geometry" />
        </mxCell>
        <mxCell id="0NDhoJnBXqwm7qd_2aJC-108" style="edgeStyle=orthogonalEdgeStyle;rounded=0;orthogonalLoop=1;jettySize=auto;html=1;exitX=1;exitY=0.5;exitDx=0;exitDy=0;" edge="1" parent="1" source="0NDhoJnBXqwm7qd_2aJC-83">
          <mxGeometry relative="1" as="geometry">
            <mxPoint x="1109" y="1020" as="targetPoint" />
          </mxGeometry>
        </mxCell>
        <mxCell id="0NDhoJnBXqwm7qd_2aJC-83" value="&lt;div&gt;answer.push_back(&lt;/div&gt;&lt;div&gt;matrix[i][j])&lt;br&gt;&lt;/div&gt;" style="rounded=0;whiteSpace=wrap;html=1;" vertex="1" parent="1">
          <mxGeometry x="940" y="1090" width="120" height="60" as="geometry" />
        </mxCell>
        <mxCell id="0NDhoJnBXqwm7qd_2aJC-86" style="edgeStyle=orthogonalEdgeStyle;rounded=0;orthogonalLoop=1;jettySize=auto;html=1;exitX=0.5;exitY=1;exitDx=0;exitDy=0;entryX=0.438;entryY=-0.009;entryDx=0;entryDy=0;entryPerimeter=0;" edge="1" parent="1" source="0NDhoJnBXqwm7qd_2aJC-82" target="0NDhoJnBXqwm7qd_2aJC-83">
          <mxGeometry relative="1" as="geometry" />
        </mxCell>
        <mxCell id="0NDhoJnBXqwm7qd_2aJC-87" value="T" style="text;html=1;align=center;verticalAlign=middle;whiteSpace=wrap;rounded=0;" vertex="1" parent="1">
          <mxGeometry x="940" y="1060" width="60" height="30" as="geometry" />
        </mxCell>
        <mxCell id="0NDhoJnBXqwm7qd_2aJC-93" style="edgeStyle=orthogonalEdgeStyle;rounded=0;orthogonalLoop=1;jettySize=auto;html=1;exitX=0.5;exitY=0;exitDx=0;exitDy=0;entryX=0.5;entryY=0;entryDx=0;entryDy=0;" edge="1" parent="1" source="0NDhoJnBXqwm7qd_2aJC-92" target="0NDhoJnBXqwm7qd_2aJC-32">
          <mxGeometry relative="1" as="geometry" />
        </mxCell>
        <mxCell id="0NDhoJnBXqwm7qd_2aJC-92" value="j++" style="rounded=0;whiteSpace=wrap;html=1;" vertex="1" parent="1">
          <mxGeometry x="640" y="760" width="80" height="40" as="geometry" />
        </mxCell>
        <mxCell id="0NDhoJnBXqwm7qd_2aJC-97" style="edgeStyle=orthogonalEdgeStyle;rounded=0;orthogonalLoop=1;jettySize=auto;html=1;entryX=0.5;entryY=1;entryDx=0;entryDy=0;" edge="1" parent="1" source="0NDhoJnBXqwm7qd_2aJC-94" target="0NDhoJnBXqwm7qd_2aJC-30">
          <mxGeometry relative="1" as="geometry" />
        </mxCell>
        <mxCell id="0NDhoJnBXqwm7qd_2aJC-94" value="i++" style="rounded=0;whiteSpace=wrap;html=1;" vertex="1" parent="1">
          <mxGeometry x="190" y="830" width="80" height="40" as="geometry" />
        </mxCell>
        <mxCell id="0NDhoJnBXqwm7qd_2aJC-96" value="F" style="text;html=1;align=center;verticalAlign=middle;whiteSpace=wrap;rounded=0;" vertex="1" parent="1">
          <mxGeometry x="310" y="800" width="60" height="30" as="geometry" />
        </mxCell>
        <mxCell id="0NDhoJnBXqwm7qd_2aJC-103" style="edgeStyle=orthogonalEdgeStyle;rounded=0;orthogonalLoop=1;jettySize=auto;html=1;exitX=0.5;exitY=1;exitDx=0;exitDy=0;entryX=0.5;entryY=0;entryDx=0;entryDy=0;" edge="1" parent="1" source="0NDhoJnBXqwm7qd_2aJC-100" target="0NDhoJnBXqwm7qd_2aJC-102">
          <mxGeometry relative="1" as="geometry" />
        </mxCell>
        <mxCell id="0NDhoJnBXqwm7qd_2aJC-100" value="output answer" style="shape=parallelogram;perimeter=parallelogramPerimeter;whiteSpace=wrap;html=1;fixedSize=1;" vertex="1" parent="1">
          <mxGeometry x="-10" y="940" width="120" height="60" as="geometry" />
        </mxCell>
        <mxCell id="0NDhoJnBXqwm7qd_2aJC-101" value="F" style="text;html=1;align=center;verticalAlign=middle;whiteSpace=wrap;rounded=0;" vertex="1" parent="1">
          <mxGeometry x="30" y="740" width="60" height="30" as="geometry" />
        </mxCell>
        <mxCell id="0NDhoJnBXqwm7qd_2aJC-102" value="End" style="ellipse;whiteSpace=wrap;html=1;" vertex="1" parent="1">
          <mxGeometry x="5" y="1020" width="90" height="60" as="geometry" />
        </mxCell>
      </root>
    </mxGraphModel>
  </diagram>
</mxfile>
